<?xml version="1.0" encoding="UTF-8" standalone="no"?>
<svg
   width="110"
   height="50"
   viewBox="0 0 110 50"
   fill="none"
   version="1.1"
   id="svg11"
   xmlns="http://www.w3.org/2000/svg"
   xmlns:svg="http://www.w3.org/2000/svg">
  <defs
     id="defs15">
    <filter
       id="mask-powermask-path-effect17265_inverse"
       style="color-interpolation-filters:sRGB"
       height="100"
       width="100"
       x="-50"
       y="-50">
      <feColorMatrix
         id="mask-powermask-path-effect17265_primitive1"
         values="1"
         type="saturate"
         result="fbSourceGraphic" />
      <feColorMatrix
         id="mask-powermask-path-effect17265_primitive2"
         values="-1 0 0 0 1 0 -1 0 0 1 0 0 -1 0 1 0 0 0 1 0 "
         in="fbSourceGraphic" />
    </filter>
    <filter
       id="mask-powermask-path-effect17276_inverse"
       style="color-interpolation-filters:sRGB"
       height="100"
       width="100"
       x="-50"
       y="-50">
      <feColorMatrix
         id="mask-powermask-path-effect17276_primitive1"
         values="1"
         type="saturate"
         result="fbSourceGraphic" />
      <feColorMatrix
         id="mask-powermask-path-effect17276_primitive2"
         values="-1 0 0 0 1 0 -1 0 0 1 0 0 -1 0 1 0 0 0 1 0 "
         in="fbSourceGraphic" />
    </filter>
    <filter
       id="mask-powermask-path-effect17296_inverse"
       style="color-interpolation-filters:sRGB"
       height="100"
       width="100"
       x="-50"
       y="-50">
      <feColorMatrix
         id="mask-powermask-path-effect17296_primitive1"
         values="1"
         type="saturate"
         result="fbSourceGraphic" />
      <feColorMatrix
         id="mask-powermask-path-effect17296_primitive2"
         values="-1 0 0 0 1 0 -1 0 0 1 0 0 -1 0 1 0 0 0 1 0 "
         in="fbSourceGraphic" />
    </filter>
    <filter
       id="mask-powermask-path-effect17307_inverse"
       style="color-interpolation-filters:sRGB"
       height="100"
       width="100"
       x="-50"
       y="-50">
      <feColorMatrix
         id="mask-powermask-path-effect17307_primitive1"
         values="1"
         type="saturate"
         result="fbSourceGraphic" />
      <feColorMatrix
         id="mask-powermask-path-effect17307_primitive2"
         values="-1 0 0 0 1 0 -1 0 0 1 0 0 -1 0 1 0 0 0 1 0 "
         in="fbSourceGraphic" />
    </filter>
  </defs>
  <mask
     id="path-1-outside-1_1_3"
     maskUnits="userSpaceOnUse"
     x="0"
     y="0"
     width="290"
     height="50"
     fill="#000000">
    <rect
       fill="#ffffff"
       width="290"
       height="50"
       id="rect2"
       x="0"
       y="0" />
    <path
       d="m 3,3 h 24 v 8 h -8 v 28 h 8 v 8 H 3 v -8 h 8 V 11 H 3 Z m 28,12 h 20 v 4 h 4 V 47 H 47 V 23 h -8 v 24 h -8 z m 32,0 h 20 v 8 H 67 v 4 h 12 v 4 h 4 v 12 h -4 v 4 H 59 V 39 H 75 V 35 H 63 V 31 H 59 V 19 h 4 z M 91,3 h 8 v 12 h 12 v 8 H 99 v 16 h 12 v 8 H 95 V 43 H 91 V 23 h -4 v -8 h 4 z m 24,12 h 20 v 4 h 4 v 28 h -20 v -4 h -4 V 31 h 4 v -4 h 12 v -4 h -16 z m 8,20 v 4 h 8 V 35 Z M 143,3 h 8 v 44 h -8 z m 12,0 h 8 v 44 h -8 z m 12,12 h 20 v 4 h 4 v 28 h -20 v -4 h -4 V 31 h 4 v -4 h 12 v -4 h -16 z m 8,20 v 4 h 8 V 35 Z M 199,3 h 8 v 12 h 12 v 8 h -12 v 16 h 12 v 8 h -16 v -4 h -4 V 23 h -4 v -8 h 4 z m 24,0 h 8 v 8 h -8 z m 0,12 h 8 v 32 h -8 z m 16,0 h 16 v 4 h 4 v 24 h -4 v 4 h -16 v -4 h -4 V 19 h 4 z m 4,8 v 16 h 8 V 23 Z m 20,-8 h 20 v 4 h 4 v 28 h -8 V 23 h -8 v 24 h -8 z"
       id="path4" />
  </mask>
  <path
     id="path19921"
     style="font-size:6.66667px;font-family:'Droid Sans';-inkscape-font-specification:'m6x11plus, Normal';text-align:center;text-anchor:middle;fill:#ffffff;stroke:none;stroke-width:6;stroke-linecap:butt;paint-order:stroke fill markers;color:#000000;-inkscape-stroke:none"
     d="M 3 3 L 3 47 L 23 47 L 23 43 L 27 43 L 27 27 L 23 27 L 23 23 L 27 23 L 27 7 L 23 7 L 23 3 L 3 3 z M 59 3 L 59 11 L 67 11 L 67 3 L 59 3 z M 71 3 L 71 47 L 79 47 L 79 3 L 71 3 z M 99 3 L 99 15 L 87 15 L 87 19 L 83 19 L 83 43 L 87 43 L 87 47 L 107 47 L 107 3 L 99 3 z M 11 11 L 19 11 L 19 19 L 11 19 L 11 11 z M 31 15 L 31 43 L 35 43 L 35 47 L 51 47 L 51 43 L 55 43 L 55 15 L 47 15 L 47 39 L 39 39 L 39 15 L 31 15 z M 59 15 L 59 47 L 67 47 L 67 15 L 59 15 z M 91 23 L 99 23 L 99 39 L 91 39 L 91 23 z M 11 27 L 19 27 L 19 39 L 11 39 L 11 27 z " />
  <path
     id="path19887"
     style="color:#000000;font-size:6.66667px;font-family:'Droid Sans';-inkscape-font-specification:'m6x11plus, Normal';text-align:center;text-anchor:middle;display:inline;fill:#000000;stroke:none;stroke-width:6;stroke-linecap:butt;-inkscape-stroke:none;paint-order:stroke fill markers"
     d="m 0,0 v 3 47 h 26 v -4 h 4 2 v 4 h 22 v -4 h 2 v 4 h 14 12 v -4 h 2 v 4 h 26 V 0 H 96 v 3 9 H 84 v 4 H 82 V 0 H 70 56 v 3 9 H 44 V 36 H 42 V 12 H 30 V 4 H 26 V 0 Z m 3,3 h 20 v 4 h 4 v 16 h -4 v 4 h 4 v 16 h -4 v 4 H 3 Z m 56,0 h 8 v 8 h -8 z m 12,0 h 8 v 44 h -8 z m 28,0 h 8 V 47 H 87 V 43 H 83 V 19 h 4 v -4 h 12 z m -88,8 v 8 h 8 v -8 z m 3,3 h 2 v 2 h -2 z m 17,1 h 8 v 24 h 8 V 15 h 8 v 28 h -4 v 4 H 35 v -4 h -4 z m 28,0 h 8 v 32 h -8 z m 32,8 v 16 h 8 V 23 Z m 3,3 h 2 v 10 h -2 z m -83,1 v 12 h 8 V 27 Z m 3,3 h 2 v 6 h -2 z" />
</svg>
