<?xml version="1.0" encoding="UTF-8" standalone="no"?>
<svg
   width="218"
   height="50"
   viewBox="0 0 218 50"
   fill="none"
   version="1.1"
   id="svg11"
   xmlns="http://www.w3.org/2000/svg"
   xmlns:svg="http://www.w3.org/2000/svg">
  <defs
     id="defs15">
    <filter
       id="mask-powermask-path-effect17265_inverse"
       style="color-interpolation-filters:sRGB"
       height="100"
       width="100"
       x="-50"
       y="-50">
      <feColorMatrix
         id="mask-powermask-path-effect17265_primitive1"
         values="1"
         type="saturate"
         result="fbSourceGraphic" />
      <feColorMatrix
         id="mask-powermask-path-effect17265_primitive2"
         values="-1 0 0 0 1 0 -1 0 0 1 0 0 -1 0 1 0 0 0 1 0 "
         in="fbSourceGraphic" />
    </filter>
    <filter
       id="mask-powermask-path-effect17276_inverse"
       style="color-interpolation-filters:sRGB"
       height="100"
       width="100"
       x="-50"
       y="-50">
      <feColorMatrix
         id="mask-powermask-path-effect17276_primitive1"
         values="1"
         type="saturate"
         result="fbSourceGraphic" />
      <feColorMatrix
         id="mask-powermask-path-effect17276_primitive2"
         values="-1 0 0 0 1 0 -1 0 0 1 0 0 -1 0 1 0 0 0 1 0 "
         in="fbSourceGraphic" />
    </filter>
    <filter
       id="mask-powermask-path-effect17296_inverse"
       style="color-interpolation-filters:sRGB"
       height="100"
       width="100"
       x="-50"
       y="-50">
      <feColorMatrix
         id="mask-powermask-path-effect17296_primitive1"
         values="1"
         type="saturate"
         result="fbSourceGraphic" />
      <feColorMatrix
         id="mask-powermask-path-effect17296_primitive2"
         values="-1 0 0 0 1 0 -1 0 0 1 0 0 -1 0 1 0 0 0 1 0 "
         in="fbSourceGraphic" />
    </filter>
    <filter
       id="mask-powermask-path-effect17307_inverse"
       style="color-interpolation-filters:sRGB"
       height="100"
       width="100"
       x="-50"
       y="-50">
      <feColorMatrix
         id="mask-powermask-path-effect17307_primitive1"
         values="1"
         type="saturate"
         result="fbSourceGraphic" />
      <feColorMatrix
         id="mask-powermask-path-effect17307_primitive2"
         values="-1 0 0 0 1 0 -1 0 0 1 0 0 -1 0 1 0 0 0 1 0 "
         in="fbSourceGraphic" />
    </filter>
  </defs>
  <mask
     id="path-1-outside-1_1_3"
     maskUnits="userSpaceOnUse"
     x="0"
     y="0"
     width="290"
     height="50"
     fill="#000000">
    <rect
       fill="#ffffff"
       width="290"
       height="50"
       id="rect2"
       x="0"
       y="0" />
    <path
       d="m 3,3 h 24 v 8 h -8 v 28 h 8 v 8 H 3 v -8 h 8 V 11 H 3 Z m 28,12 h 20 v 4 h 4 V 47 H 47 V 23 h -8 v 24 h -8 z m 32,0 h 20 v 8 H 67 v 4 h 12 v 4 h 4 v 12 h -4 v 4 H 59 V 39 H 75 V 35 H 63 V 31 H 59 V 19 h 4 z M 91,3 h 8 v 12 h 12 v 8 H 99 v 16 h 12 v 8 H 95 V 43 H 91 V 23 h -4 v -8 h 4 z m 24,12 h 20 v 4 h 4 v 28 h -20 v -4 h -4 V 31 h 4 v -4 h 12 v -4 h -16 z m 8,20 v 4 h 8 V 35 Z M 143,3 h 8 v 44 h -8 z m 12,0 h 8 v 44 h -8 z m 12,12 h 20 v 4 h 4 v 28 h -20 v -4 h -4 V 31 h 4 v -4 h 12 v -4 h -16 z m 8,20 v 4 h 8 V 35 Z M 199,3 h 8 v 12 h 12 v 8 h -12 v 16 h 12 v 8 h -16 v -4 h -4 V 23 h -4 v -8 h 4 z m 24,0 h 8 v 8 h -8 z m 0,12 h 8 v 32 h -8 z m 16,0 h 16 v 4 h 4 v 24 h -4 v 4 h -16 v -4 h -4 V 19 h 4 z m 4,8 v 16 h 8 V 23 Z m 20,-8 h 20 v 4 h 4 v 28 h -8 V 23 h -8 v 24 h -8 z"
       id="path4" />
  </mask>
  <path
     id="path17458"
     style="color:#000000;font-size:6.66667px;font-family:'Droid Sans';-inkscape-font-specification:'m6x11plus, Normal';text-align:center;text-anchor:middle;display:inline;fill:#ffffff;stroke:none;stroke-width:6;stroke-linecap:butt;-inkscape-stroke:none;paint-order:markers stroke fill"
     d="m 3,3 v 44 h 20 v -4 h 4 V 7 H 23 V 3 Z m 120,0 v 44 h 8 V 3 Z m 84,0 v 12 h -12 v 4 h -4 v 24 h 4 v 4 h 20 V 3 Z M 11,11 h 8 v 28 h -8 z m 24,4 v 4 h -4 v 24 h 4 v 4 h 16 v -4 h 4 V 19 h -4 v -4 z m 24,0 v 28 h 4 v 4 h 24 v -4 h 4 V 15 H 83 V 39 H 79 V 19 H 71 V 39 H 67 V 15 Z m 36,0 v 32 h 8 V 23 h 8 v 24 h 8 V 19 h -4 v -4 z m 44,0 v 4 h -4 v 24 h 4 v 4 h 16 v -4 h 4 V 19 h -4 v -4 z m 24,0 v 8 h 16 v 4 h -12 v 4 h -4 v 12 h 4 v 4 h 20 V 19 h -4 V 15 Z M 39,23 h 8 v 16 h -8 z m 104,0 h 8 v 16 h -8 z m 56,0 h 8 v 16 h -8 z m -28,12 h 8 v 4 h -8 z" />
  <path
     id="path17410"
     style="color:#000000;font-size:6.66667px;font-family:'Droid Sans';-inkscape-font-specification:'m6x11plus, Normal';text-align:center;text-anchor:middle;display:inline;fill:#000000;stroke:none;stroke-width:6;stroke-linecap:butt;-inkscape-stroke:none;paint-order:markers stroke fill"
     d="m 0,0 v 3 47 h 26 v -4 h 4 2 v 4 h 22 v -4 h 4 2 v 4 h 30 v -4 h 2 v 4 h 14 V 26 h 2 v 24 h 14 12 v -4 h 2 v 4 h 22 v -4 h 4 2 v 4 h 26 v -4 h 2 v 4 h 26 V 0 h -14 v 3 9 h -12 v 4 h -2 -2 -2 v -4 h -26 v 3 1 h -2 v -4 h -22 v 3 1 h -2 V 0 h -14 v 3 13 h -2 V 12 H 94 80 v 4 H 70 V 12 H 56 v 3 1 H 54 V 12 H 32 v 3 1 H 30 V 4 H 26 V 0 Z m 3,3 h 20 v 4 h 4 v 36 h -4 v 4 H 3 Z m 120,0 h 8 v 44 h -8 z m 84,0 h 8 v 44 h -20 v -4 h -4 V 19 h 4 v -4 h 12 z M 11,11 v 28 h 8 V 11 Z m 3,3 h 2 v 22 h -2 z m 21,1 h 16 v 4 h 4 v 24 h -4 v 4 H 35 V 43 H 31 V 19 h 4 z m 24,0 h 8 v 24 h 4 V 19 h 8 v 20 h 4 V 15 h 8 v 28 h -4 v 4 H 63 v -4 h -4 z m 36,0 h 20 v 4 h 4 v 28 h -8 V 23 h -8 v 24 h -8 z m 44,0 h 16 v 4 h 4 v 24 h -4 v 4 h -16 v -4 h -4 V 19 h 4 z m 24,0 h 20 v 4 h 4 v 28 h -20 v -4 h -4 V 31 h 4 v -4 h 12 V 23 H 163 Z M 39,23 v 16 h 8 V 23 Z m 104,0 v 16 h 8 V 23 Z m 56,0 v 16 h 8 V 23 Z M 42,26 h 2 v 10 h -2 z m 104,0 h 2 v 10 h -2 z m 16,0 h 2 v 2 h -2 z m 40,0 h 2 v 10 h -2 z m -31,9 v 4 h 8 v -4 z" />
</svg>
