<svg width="290" height="50" viewBox="0 0 290 50" fill="none" xmlns="http://www.w3.org/2000/svg">
<mask id="path-1-outside-1_1_3" maskUnits="userSpaceOnUse" x="0" y="0" width="290" height="50" fill="black">
<rect fill="white" width="290" height="50"/>
<path d="M3 3H27V11H19V39H27V47H3V39H11V11H3V3ZM31 15H51V19H55V47H47V23H39V47H31V15ZM63 15H83V23H67V27H79V31H83V43H79V47H59V39H75V35H63V31H59V19H63V15ZM91 3H99V15H111V23H99V39H111V47H95V43H91V23H87V15H91V3ZM115 15H135V19H139V47H119V43H115V31H119V27H131V23H115V15ZM123 35V39H131V35H123ZM143 3H151V47H143V3ZM155 3H163V47H155V3ZM167 15H187V19H191V47H171V43H167V31H171V27H183V23H167V15ZM175 35V39H183V35H175ZM199 3H207V15H219V23H207V39H219V47H203V43H199V23H195V15H199V3ZM223 3H231V11H223V3ZM223 15H231V47H223V15ZM239 15H255V19H259V43H255V47H239V43H235V19H239V15ZM243 23V39H251V23H243ZM263 15H283V19H287V47H279V23H271V47H263V15Z"/>
</mask>
<path d="M3 3H27V11H19V39H27V47H3V39H11V11H3V3ZM31 15H51V19H55V47H47V23H39V47H31V15ZM63 15H83V23H67V27H79V31H83V43H79V47H59V39H75V35H63V31H59V19H63V15ZM91 3H99V15H111V23H99V39H111V47H95V43H91V23H87V15H91V3ZM115 15H135V19H139V47H119V43H115V31H119V27H131V23H115V15ZM123 35V39H131V35H123ZM143 3H151V47H143V3ZM155 3H163V47H155V3ZM167 15H187V19H191V47H171V43H167V31H171V27H183V23H167V15ZM175 35V39H183V35H175ZM199 3H207V15H219V23H207V39H219V47H203V43H199V23H195V15H199V3ZM223 3H231V11H223V3ZM223 15H231V47H223V15ZM239 15H255V19H259V43H255V47H239V43H235V19H239V15ZM243 23V39H251V23H243ZM263 15H283V19H287V47H279V23H271V47H263V15Z" fill="white"/>
<path d="M3 3V0H0V3H3ZM27 3H30V0H27V3ZM27 11V14H30V11H27ZM19 11V8H16V11H19ZM19 39H16V42H19V39ZM27 39H30V36H27V39ZM27 47V50H30V47H27ZM3 47H0V50H3V47ZM3 39V36H0V39H3ZM11 39V42H14V39H11ZM11 11H14V8H11V11ZM3 11H0V14H3V11ZM3 6H27V0H3V6ZM24 3V11H30V3H24ZM27 8H19V14H27V8ZM16 11V39H22V11H16ZM19 42H27V36H19V42ZM24 39V47H30V39H24ZM27 44H3V50H27V44ZM6 47V39H0V47H6ZM3 42H11V36H3V42ZM14 39V11H8V39H14ZM11 8H3V14H11V8ZM6 11V3H0V11H6ZM31 15V12H28V15H31ZM51 15H54V12H51V15ZM51 19H48V22H51V19ZM55 19H58V16H55V19ZM55 47V50H58V47H55ZM47 47H44V50H47V47ZM47 23H50V20H47V23ZM39 23V20H36V23H39ZM39 47V50H42V47H39ZM31 47H28V50H31V47ZM31 18H51V12H31V18ZM48 15V19H54V15H48ZM51 22H55V16H51V22ZM52 19V47H58V19H52ZM55 44H47V50H55V44ZM50 47V23H44V47H50ZM47 20H39V26H47V20ZM36 23V47H42V23H36ZM39 44H31V50H39V44ZM34 47V15H28V47H34ZM63 15V12H60V15H63ZM83 15H86V12H83V15ZM83 23V26H86V23H83ZM67 23V20H64V23H67ZM67 27H64V30H67V27ZM79 27H82V24H79V27ZM79 31H76V34H79V31ZM83 31H86V28H83V31ZM83 43V46H86V43H83ZM79 43V40H76V43H79ZM79 47V50H82V47H79ZM59 47H56V50H59V47ZM59 39V36H56V39H59ZM75 39V42H78V39H75ZM75 35H78V32H75V35ZM63 35H60V38H63V35ZM63 31H66V28H63V31ZM59 31H56V34H59V31ZM59 19V16H56V19H59ZM63 19V22H66V19H63ZM63 18H83V12H63V18ZM80 15V23H86V15H80ZM83 20H67V26H83V20ZM64 23V27H70V23H64ZM67 30H79V24H67V30ZM76 27V31H82V27H76ZM79 34H83V28H79V34ZM80 31V43H86V31H80ZM83 40H79V46H83V40ZM76 43V47H82V43H76ZM79 44H59V50H79V44ZM62 47V39H56V47H62ZM59 42H75V36H59V42ZM78 39V35H72V39H78ZM75 32H63V38H75V32ZM66 35V31H60V35H66ZM63 28H59V34H63V28ZM62 31V19H56V31H62ZM59 22H63V16H59V22ZM66 19V15H60V19H66ZM91 3V0H88V3H91ZM99 3H102V0H99V3ZM99 15H96V18H99V15ZM111 15H114V12H111V15ZM111 23V26H114V23H111ZM99 23V20H96V23H99ZM99 39H96V42H99V39ZM111 39H114V36H111V39ZM111 47V50H114V47H111ZM95 47H92V50H95V47ZM95 43H98V40H95V43ZM91 43H88V46H91V43ZM91 23H94V20H91V23ZM87 23H84V26H87V23ZM87 15V12H84V15H87ZM91 15V18H94V15H91ZM91 6H99V0H91V6ZM96 3V15H102V3H96ZM99 18H111V12H99V18ZM108 15V23H114V15H108ZM111 20H99V26H111V20ZM96 23V39H102V23H96ZM99 42H111V36H99V42ZM108 39V47H114V39H108ZM111 44H95V50H111V44ZM98 47V43H92V47H98ZM95 40H91V46H95V40ZM94 43V23H88V43H94ZM91 20H87V26H91V20ZM90 23V15H84V23H90ZM87 18H91V12H87V18ZM94 15V3H88V15H94ZM115 15V12H112V15H115ZM135 15H138V12H135V15ZM135 19H132V22H135V19ZM139 19H142V16H139V19ZM139 47V50H142V47H139ZM119 47H116V50H119V47ZM119 43H122V40H119V43ZM115 43H112V46H115V43ZM115 31V28H112V31H115ZM119 31V34H122V31H119ZM119 27V24H116V27H119ZM131 27V30H134V27H131ZM131 23H134V20H131V23ZM115 23H112V26H115V23ZM123 35V32H120V35H123ZM123 39H120V42H123V39ZM131 39V42H134V39H131ZM131 35H134V32H131V35ZM115 18H135V12H115V18ZM132 15V19H138V15H132ZM135 22H139V16H135V22ZM136 19V47H142V19H136ZM139 44H119V50H139V44ZM122 47V43H116V47H122ZM119 40H115V46H119V40ZM118 43V31H112V43H118ZM115 34H119V28H115V34ZM122 31V27H116V31H122ZM119 30H131V24H119V30ZM134 27V23H128V27H134ZM131 20H115V26H131V20ZM118 23V15H112V23H118ZM120 35V39H126V35H120ZM123 42H131V36H123V42ZM134 39V35H128V39H134ZM131 32H123V38H131V32ZM143 3V0H140V3H143ZM151 3H154V0H151V3ZM151 47V50H154V47H151ZM143 47H140V50H143V47ZM143 6H151V0H143V6ZM148 3V47H154V3H148ZM151 44H143V50H151V44ZM146 47V3H140V47H146ZM155 3V0H152V3H155ZM163 3H166V0H163V3ZM163 47V50H166V47H163ZM155 47H152V50H155V47ZM155 6H163V0H155V6ZM160 3V47H166V3H160ZM163 44H155V50H163V44ZM158 47V3H152V47H158ZM167 15V12H164V15H167ZM187 15H190V12H187V15ZM187 19H184V22H187V19ZM191 19H194V16H191V19ZM191 47V50H194V47H191ZM171 47H168V50H171V47ZM171 43H174V40H171V43ZM167 43H164V46H167V43ZM167 31V28H164V31H167ZM171 31V34H174V31H171ZM171 27V24H168V27H171ZM183 27V30H186V27H183ZM183 23H186V20H183V23ZM167 23H164V26H167V23ZM175 35V32H172V35H175ZM175 39H172V42H175V39ZM183 39V42H186V39H183ZM183 35H186V32H183V35ZM167 18H187V12H167V18ZM184 15V19H190V15H184ZM187 22H191V16H187V22ZM188 19V47H194V19H188ZM191 44H171V50H191V44ZM174 47V43H168V47H174ZM171 40H167V46H171V40ZM170 43V31H164V43H170ZM167 34H171V28H167V34ZM174 31V27H168V31H174ZM171 30H183V24H171V30ZM186 27V23H180V27H186ZM183 20H167V26H183V20ZM170 23V15H164V23H170ZM172 35V39H178V35H172ZM175 42H183V36H175V42ZM186 39V35H180V39H186ZM183 32H175V38H183V32ZM199 3V0H196V3H199ZM207 3H210V0H207V3ZM207 15H204V18H207V15ZM219 15H222V12H219V15ZM219 23V26H222V23H219ZM207 23V20H204V23H207ZM207 39H204V42H207V39ZM219 39H222V36H219V39ZM219 47V50H222V47H219ZM203 47H200V50H203V47ZM203 43H206V40H203V43ZM199 43H196V46H199V43ZM199 23H202V20H199V23ZM195 23H192V26H195V23ZM195 15V12H192V15H195ZM199 15V18H202V15H199ZM199 6H207V0H199V6ZM204 3V15H210V3H204ZM207 18H219V12H207V18ZM216 15V23H222V15H216ZM219 20H207V26H219V20ZM204 23V39H210V23H204ZM207 42H219V36H207V42ZM216 39V47H222V39H216ZM219 44H203V50H219V44ZM206 47V43H200V47H206ZM203 40H199V46H203V40ZM202 43V23H196V43H202ZM199 20H195V26H199V20ZM198 23V15H192V23H198ZM195 18H199V12H195V18ZM202 15V3H196V15H202ZM223 3V0H220V3H223ZM231 3H234V0H231V3ZM231 11V14H234V11H231ZM223 11H220V14H223V11ZM223 15V12H220V15H223ZM231 15H234V12H231V15ZM231 47V50H234V47H231ZM223 47H220V50H223V47ZM223 6H231V0H223V6ZM228 3V11H234V3H228ZM231 8H223V14H231V8ZM226 11V3H220V11H226ZM223 18H231V12H223V18ZM228 15V47H234V15H228ZM231 44H223V50H231V44ZM226 47V15H220V47H226ZM239 15V12H236V15H239ZM255 15H258V12H255V15ZM255 19H252V22H255V19ZM259 19H262V16H259V19ZM259 43V46H262V43H259ZM255 43V40H252V43H255ZM255 47V50H258V47H255ZM239 47H236V50H239V47ZM239 43H242V40H239V43ZM235 43H232V46H235V43ZM235 19V16H232V19H235ZM239 19V22H242V19H239ZM243 23V20H240V23H243ZM243 39H240V42H243V39ZM251 39V42H254V39H251ZM251 23H254V20H251V23ZM239 18H255V12H239V18ZM252 15V19H258V15H252ZM255 22H259V16H255V22ZM256 19V43H262V19H256ZM259 40H255V46H259V40ZM252 43V47H258V43H252ZM255 44H239V50H255V44ZM242 47V43H236V47H242ZM239 40H235V46H239V40ZM238 43V19H232V43H238ZM235 22H239V16H235V22ZM242 19V15H236V19H242ZM240 23V39H246V23H240ZM243 42H251V36H243V42ZM254 39V23H248V39H254ZM251 20H243V26H251V20ZM263 15V12H260V15H263ZM283 15H286V12H283V15ZM283 19H280V22H283V19ZM287 19H290V16H287V19ZM287 47V50H290V47H287ZM279 47H276V50H279V47ZM279 23H282V20H279V23ZM271 23V20H268V23H271ZM271 47V50H274V47H271ZM263 47H260V50H263V47ZM263 18H283V12H263V18ZM280 15V19H286V15H280ZM283 22H287V16H283V22ZM284 19V47H290V19H284ZM287 44H279V50H287V44ZM282 47V23H276V47H282ZM279 20H271V26H279V20ZM268 23V47H274V23H268ZM271 44H263V50H271V44ZM266 47V15H260V47H266Z" fill="black" mask="url(#path-1-outside-1_1_3)"/>
</svg>
