<svg width="534" height="62" viewBox="0 0 534 62" fill="none" xmlns="http://www.w3.org/2000/svg">
<mask id="path-1-outside-1_1_3" maskUnits="userSpaceOnUse" x="0" y="0" width="534" height="62" fill="black">
<rect fill="white" width="534" height="62"/>
<path d="M3 3H23V7H27V23H23V27H27V43H23V47H3V3ZM11 11V19H19V11H11ZM11 27V39H19V27H11ZM31 15H51V19H55V47H35V43H31V31H35V27H47V23H31V15ZM39 35V39H47V35H39ZM59 3H67V47H59V3ZM71 15H91V19H95V47H75V43H71V31H75V27H87V23H71V15ZM79 35V39H87V35H79ZM103 3H111V15H123V23H111V39H123V47H107V43H103V23H99V15H103V3ZM127 15H135V19H139V15H151V23H139V27H135V47H127V15ZM159 15H175V19H179V43H175V47H159V43H155V19H159V15ZM163 23V39H171V23H163ZM211 3H239V7H243V47H235V11H231V39H223V11H219V47H211V3ZM251 15H267V19H271V43H267V47H251V43H247V19H251V15ZM255 23V39H263V23H255ZM291 3H299V47H279V43H275V19H279V15H291V3ZM283 23V39H291V23H283ZM331 3H359V7H363V47H355V11H351V39H343V11H339V47H331V3ZM367 15H387V19H391V47H371V43H367V31H371V27H383V23H367V15ZM375 35V39H383V35H375ZM395 15H415V19H419V47H411V23H403V47H395V15ZM423 15H443V19H447V47H427V43H423V31H427V27H439V23H423V15ZM431 35V39H439V35H431ZM455 15H471V19H475V55H471V59H451V51H467V47H455V43H451V19H455V15ZM459 23V39H467V23H459ZM483 15H499V19H503V35H487V39H503V47H483V43H479V19H483V15ZM487 23V27H495V23H487ZM507 15H515V19H519V15H531V23H519V27H515V47H507V15Z"/>
</mask>
<path d="M3 3H23V7H27V23H23V27H27V43H23V47H3V3ZM11 11V19H19V11H11ZM11 27V39H19V27H11ZM31 15H51V19H55V47H35V43H31V31H35V27H47V23H31V15ZM39 35V39H47V35H39ZM59 3H67V47H59V3ZM71 15H91V19H95V47H75V43H71V31H75V27H87V23H71V15ZM79 35V39H87V35H79ZM103 3H111V15H123V23H111V39H123V47H107V43H103V23H99V15H103V3ZM127 15H135V19H139V15H151V23H139V27H135V47H127V15ZM159 15H175V19H179V43H175V47H159V43H155V19H159V15ZM163 23V39H171V23H163ZM211 3H239V7H243V47H235V11H231V39H223V11H219V47H211V3ZM251 15H267V19H271V43H267V47H251V43H247V19H251V15ZM255 23V39H263V23H255ZM291 3H299V47H279V43H275V19H279V15H291V3ZM283 23V39H291V23H283ZM331 3H359V7H363V47H355V11H351V39H343V11H339V47H331V3ZM367 15H387V19H391V47H371V43H367V31H371V27H383V23H367V15ZM375 35V39H383V35H375ZM395 15H415V19H419V47H411V23H403V47H395V15ZM423 15H443V19H447V47H427V43H423V31H427V27H439V23H423V15ZM431 35V39H439V35H431ZM455 15H471V19H475V55H471V59H451V51H467V47H455V43H451V19H455V15ZM459 23V39H467V23H459ZM483 15H499V19H503V35H487V39H503V47H483V43H479V19H483V15ZM487 23V27H495V23H487ZM507 15H515V19H519V15H531V23H519V27H515V47H507V15Z" fill="white"/>
<path d="M3 3V0H0V3H3ZM23 3H26V0H23V3ZM23 7H20V10H23V7ZM27 7H30V4H27V7ZM27 23V26H30V23H27ZM23 23V20H20V23H23ZM23 27H20V30H23V27ZM27 27H30V24H27V27ZM27 43V46H30V43H27ZM23 43V40H20V43H23ZM23 47V50H26V47H23ZM3 47H0V50H3V47ZM11 11V8H8V11H11ZM11 19H8V22H11V19ZM19 19V22H22V19H19ZM19 11H22V8H19V11ZM11 27V24H8V27H11ZM11 39H8V42H11V39ZM19 39V42H22V39H19ZM19 27H22V24H19V27ZM3 6H23V0H3V6ZM20 3V7H26V3H20ZM23 10H27V4H23V10ZM24 7V23H30V7H24ZM27 20H23V26H27V20ZM20 23V27H26V23H20ZM23 30H27V24H23V30ZM24 27V43H30V27H24ZM27 40H23V46H27V40ZM20 43V47H26V43H20ZM23 44H3V50H23V44ZM6 47V3H0V47H6ZM8 11V19H14V11H8ZM11 22H19V16H11V22ZM22 19V11H16V19H22ZM19 8H11V14H19V8ZM8 27V39H14V27H8ZM11 42H19V36H11V42ZM22 39V27H16V39H22ZM19 24H11V30H19V24ZM31 15V12H28V15H31ZM51 15H54V12H51V15ZM51 19H48V22H51V19ZM55 19H58V16H55V19ZM55 47V50H58V47H55ZM35 47H32V50H35V47ZM35 43H38V40H35V43ZM31 43H28V46H31V43ZM31 31V28H28V31H31ZM35 31V34H38V31H35ZM35 27V24H32V27H35ZM47 27V30H50V27H47ZM47 23H50V20H47V23ZM31 23H28V26H31V23ZM39 35V32H36V35H39ZM39 39H36V42H39V39ZM47 39V42H50V39H47ZM47 35H50V32H47V35ZM31 18H51V12H31V18ZM48 15V19H54V15H48ZM51 22H55V16H51V22ZM52 19V47H58V19H52ZM55 44H35V50H55V44ZM38 47V43H32V47H38ZM35 40H31V46H35V40ZM34 43V31H28V43H34ZM31 34H35V28H31V34ZM38 31V27H32V31H38ZM35 30H47V24H35V30ZM50 27V23H44V27H50ZM47 20H31V26H47V20ZM34 23V15H28V23H34ZM36 35V39H42V35H36ZM39 42H47V36H39V42ZM50 39V35H44V39H50ZM47 32H39V38H47V32ZM59 3V0H56V3H59ZM67 3H70V0H67V3ZM67 47V50H70V47H67ZM59 47H56V50H59V47ZM59 6H67V0H59V6ZM64 3V47H70V3H64ZM67 44H59V50H67V44ZM62 47V3H56V47H62ZM71 15V12H68V15H71ZM91 15H94V12H91V15ZM91 19H88V22H91V19ZM95 19H98V16H95V19ZM95 47V50H98V47H95ZM75 47H72V50H75V47ZM75 43H78V40H75V43ZM71 43H68V46H71V43ZM71 31V28H68V31H71ZM75 31V34H78V31H75ZM75 27V24H72V27H75ZM87 27V30H90V27H87ZM87 23H90V20H87V23ZM71 23H68V26H71V23ZM79 35V32H76V35H79ZM79 39H76V42H79V39ZM87 39V42H90V39H87ZM87 35H90V32H87V35ZM71 18H91V12H71V18ZM88 15V19H94V15H88ZM91 22H95V16H91V22ZM92 19V47H98V19H92ZM95 44H75V50H95V44ZM78 47V43H72V47H78ZM75 40H71V46H75V40ZM74 43V31H68V43H74ZM71 34H75V28H71V34ZM78 31V27H72V31H78ZM75 30H87V24H75V30ZM90 27V23H84V27H90ZM87 20H71V26H87V20ZM74 23V15H68V23H74ZM76 35V39H82V35H76ZM79 42H87V36H79V42ZM90 39V35H84V39H90ZM87 32H79V38H87V32ZM103 3V0H100V3H103ZM111 3H114V0H111V3ZM111 15H108V18H111V15ZM123 15H126V12H123V15ZM123 23V26H126V23H123ZM111 23V20H108V23H111ZM111 39H108V42H111V39ZM123 39H126V36H123V39ZM123 47V50H126V47H123ZM107 47H104V50H107V47ZM107 43H110V40H107V43ZM103 43H100V46H103V43ZM103 23H106V20H103V23ZM99 23H96V26H99V23ZM99 15V12H96V15H99ZM103 15V18H106V15H103ZM103 6H111V0H103V6ZM108 3V15H114V3H108ZM111 18H123V12H111V18ZM120 15V23H126V15H120ZM123 20H111V26H123V20ZM108 23V39H114V23H108ZM111 42H123V36H111V42ZM120 39V47H126V39H120ZM123 44H107V50H123V44ZM110 47V43H104V47H110ZM107 40H103V46H107V40ZM106 43V23H100V43H106ZM103 20H99V26H103V20ZM102 23V15H96V23H102ZM99 18H103V12H99V18ZM106 15V3H100V15H106ZM127 15V12H124V15H127ZM135 15H138V12H135V15ZM135 19H132V22H135V19ZM139 19V22H142V19H139ZM139 15V12H136V15H139ZM151 15H154V12H151V15ZM151 23V26H154V23H151ZM139 23V20H136V23H139ZM139 27V30H142V27H139ZM135 27V24H132V27H135ZM135 47V50H138V47H135ZM127 47H124V50H127V47ZM127 18H135V12H127V18ZM132 15V19H138V15H132ZM135 22H139V16H135V22ZM142 19V15H136V19H142ZM139 18H151V12H139V18ZM148 15V23H154V15H148ZM151 20H139V26H151V20ZM136 23V27H142V23H136ZM139 24H135V30H139V24ZM132 27V47H138V27H132ZM135 44H127V50H135V44ZM130 47V15H124V47H130ZM159 15V12H156V15H159ZM175 15H178V12H175V15ZM175 19H172V22H175V19ZM179 19H182V16H179V19ZM179 43V46H182V43H179ZM175 43V40H172V43H175ZM175 47V50H178V47H175ZM159 47H156V50H159V47ZM159 43H162V40H159V43ZM155 43H152V46H155V43ZM155 19V16H152V19H155ZM159 19V22H162V19H159ZM163 23V20H160V23H163ZM163 39H160V42H163V39ZM171 39V42H174V39H171ZM171 23H174V20H171V23ZM159 18H175V12H159V18ZM172 15V19H178V15H172ZM175 22H179V16H175V22ZM176 19V43H182V19H176ZM179 40H175V46H179V40ZM172 43V47H178V43H172ZM175 44H159V50H175V44ZM162 47V43H156V47H162ZM159 40H155V46H159V40ZM158 43V19H152V43H158ZM155 22H159V16H155V22ZM162 19V15H156V19H162ZM160 23V39H166V23H160ZM163 42H171V36H163V42ZM174 39V23H168V39H174ZM171 20H163V26H171V20ZM211 3V0H208V3H211ZM239 3H242V0H239V3ZM239 7H236V10H239V7ZM243 7H246V4H243V7ZM243 47V50H246V47H243ZM235 47H232V50H235V47ZM235 11H238V8H235V11ZM231 11V8H228V11H231ZM231 39V42H234V39H231ZM223 39H220V42H223V39ZM223 11H226V8H223V11ZM219 11V8H216V11H219ZM219 47V50H222V47H219ZM211 47H208V50H211V47ZM211 6H239V0H211V6ZM236 3V7H242V3H236ZM239 10H243V4H239V10ZM240 7V47H246V7H240ZM243 44H235V50H243V44ZM238 47V11H232V47H238ZM235 8H231V14H235V8ZM228 11V39H234V11H228ZM231 36H223V42H231V36ZM226 39V11H220V39H226ZM223 8H219V14H223V8ZM216 11V47H222V11H216ZM219 44H211V50H219V44ZM214 47V3H208V47H214ZM251 15V12H248V15H251ZM267 15H270V12H267V15ZM267 19H264V22H267V19ZM271 19H274V16H271V19ZM271 43V46H274V43H271ZM267 43V40H264V43H267ZM267 47V50H270V47H267ZM251 47H248V50H251V47ZM251 43H254V40H251V43ZM247 43H244V46H247V43ZM247 19V16H244V19H247ZM251 19V22H254V19H251ZM255 23V20H252V23H255ZM255 39H252V42H255V39ZM263 39V42H266V39H263ZM263 23H266V20H263V23ZM251 18H267V12H251V18ZM264 15V19H270V15H264ZM267 22H271V16H267V22ZM268 19V43H274V19H268ZM271 40H267V46H271V40ZM264 43V47H270V43H264ZM267 44H251V50H267V44ZM254 47V43H248V47H254ZM251 40H247V46H251V40ZM250 43V19H244V43H250ZM247 22H251V16H247V22ZM254 19V15H248V19H254ZM252 23V39H258V23H252ZM255 42H263V36H255V42ZM266 39V23H260V39H266ZM263 20H255V26H263V20ZM291 3V0H288V3H291ZM299 3H302V0H299V3ZM299 47V50H302V47H299ZM279 47H276V50H279V47ZM279 43H282V40H279V43ZM275 43H272V46H275V43ZM275 19V16H272V19H275ZM279 19V22H282V19H279ZM279 15V12H276V15H279ZM291 15V18H294V15H291ZM283 23V20H280V23H283ZM283 39H280V42H283V39ZM291 39V42H294V39H291ZM291 23H294V20H291V23ZM291 6H299V0H291V6ZM296 3V47H302V3H296ZM299 44H279V50H299V44ZM282 47V43H276V47H282ZM279 40H275V46H279V40ZM278 43V19H272V43H278ZM275 22H279V16H275V22ZM282 19V15H276V19H282ZM279 18H291V12H279V18ZM294 15V3H288V15H294ZM280 23V39H286V23H280ZM283 42H291V36H283V42ZM294 39V23H288V39H294ZM291 20H283V26H291V20ZM331 3V0H328V3H331ZM359 3H362V0H359V3ZM359 7H356V10H359V7ZM363 7H366V4H363V7ZM363 47V50H366V47H363ZM355 47H352V50H355V47ZM355 11H358V8H355V11ZM351 11V8H348V11H351ZM351 39V42H354V39H351ZM343 39H340V42H343V39ZM343 11H346V8H343V11ZM339 11V8H336V11H339ZM339 47V50H342V47H339ZM331 47H328V50H331V47ZM331 6H359V0H331V6ZM356 3V7H362V3H356ZM359 10H363V4H359V10ZM360 7V47H366V7H360ZM363 44H355V50H363V44ZM358 47V11H352V47H358ZM355 8H351V14H355V8ZM348 11V39H354V11H348ZM351 36H343V42H351V36ZM346 39V11H340V39H346ZM343 8H339V14H343V8ZM336 11V47H342V11H336ZM339 44H331V50H339V44ZM334 47V3H328V47H334ZM367 15V12H364V15H367ZM387 15H390V12H387V15ZM387 19H384V22H387V19ZM391 19H394V16H391V19ZM391 47V50H394V47H391ZM371 47H368V50H371V47ZM371 43H374V40H371V43ZM367 43H364V46H367V43ZM367 31V28H364V31H367ZM371 31V34H374V31H371ZM371 27V24H368V27H371ZM383 27V30H386V27H383ZM383 23H386V20H383V23ZM367 23H364V26H367V23ZM375 35V32H372V35H375ZM375 39H372V42H375V39ZM383 39V42H386V39H383ZM383 35H386V32H383V35ZM367 18H387V12H367V18ZM384 15V19H390V15H384ZM387 22H391V16H387V22ZM388 19V47H394V19H388ZM391 44H371V50H391V44ZM374 47V43H368V47H374ZM371 40H367V46H371V40ZM370 43V31H364V43H370ZM367 34H371V28H367V34ZM374 31V27H368V31H374ZM371 30H383V24H371V30ZM386 27V23H380V27H386ZM383 20H367V26H383V20ZM370 23V15H364V23H370ZM372 35V39H378V35H372ZM375 42H383V36H375V42ZM386 39V35H380V39H386ZM383 32H375V38H383V32ZM395 15V12H392V15H395ZM415 15H418V12H415V15ZM415 19H412V22H415V19ZM419 19H422V16H419V19ZM419 47V50H422V47H419ZM411 47H408V50H411V47ZM411 23H414V20H411V23ZM403 23V20H400V23H403ZM403 47V50H406V47H403ZM395 47H392V50H395V47ZM395 18H415V12H395V18ZM412 15V19H418V15H412ZM415 22H419V16H415V22ZM416 19V47H422V19H416ZM419 44H411V50H419V44ZM414 47V23H408V47H414ZM411 20H403V26H411V20ZM400 23V47H406V23H400ZM403 44H395V50H403V44ZM398 47V15H392V47H398ZM423 15V12H420V15H423ZM443 15H446V12H443V15ZM443 19H440V22H443V19ZM447 19H450V16H447V19ZM447 47V50H450V47H447ZM427 47H424V50H427V47ZM427 43H430V40H427V43ZM423 43H420V46H423V43ZM423 31V28H420V31H423ZM427 31V34H430V31H427ZM427 27V24H424V27H427ZM439 27V30H442V27H439ZM439 23H442V20H439V23ZM423 23H420V26H423V23ZM431 35V32H428V35H431ZM431 39H428V42H431V39ZM439 39V42H442V39H439ZM439 35H442V32H439V35ZM423 18H443V12H423V18ZM440 15V19H446V15H440ZM443 22H447V16H443V22ZM444 19V47H450V19H444ZM447 44H427V50H447V44ZM430 47V43H424V47H430ZM427 40H423V46H427V40ZM426 43V31H420V43H426ZM423 34H427V28H423V34ZM430 31V27H424V31H430ZM427 30H439V24H427V30ZM442 27V23H436V27H442ZM439 20H423V26H439V20ZM426 23V15H420V23H426ZM428 35V39H434V35H428ZM431 42H439V36H431V42ZM442 39V35H436V39H442ZM439 32H431V38H439V32ZM455 15V12H452V15H455ZM471 15H474V12H471V15ZM471 19H468V22H471V19ZM475 19H478V16H475V19ZM475 55V58H478V55H475ZM471 55V52H468V55H471ZM471 59V62H474V59H471ZM451 59H448V62H451V59ZM451 51V48H448V51H451ZM467 51V54H470V51H467ZM467 47H470V44H467V47ZM455 47H452V50H455V47ZM455 43H458V40H455V43ZM451 43H448V46H451V43ZM451 19V16H448V19H451ZM455 19V22H458V19H455ZM459 23V20H456V23H459ZM459 39H456V42H459V39ZM467 39V42H470V39H467ZM467 23H470V20H467V23ZM455 18H471V12H455V18ZM468 15V19H474V15H468ZM471 22H475V16H471V22ZM472 19V55H478V19H472ZM475 52H471V58H475V52ZM468 55V59H474V55H468ZM471 56H451V62H471V56ZM454 59V51H448V59H454ZM451 54H467V48H451V54ZM470 51V47H464V51H470ZM467 44H455V50H467V44ZM458 47V43H452V47H458ZM455 40H451V46H455V40ZM454 43V19H448V43H454ZM451 22H455V16H451V22ZM458 19V15H452V19H458ZM456 23V39H462V23H456ZM459 42H467V36H459V42ZM470 39V23H464V39H470ZM467 20H459V26H467V20ZM483 15V12H480V15H483ZM499 15H502V12H499V15ZM499 19H496V22H499V19ZM503 19H506V16H503V19ZM503 35V38H506V35H503ZM487 35V32H484V35H487ZM487 39H484V42H487V39ZM503 39H506V36H503V39ZM503 47V50H506V47H503ZM483 47H480V50H483V47ZM483 43H486V40H483V43ZM479 43H476V46H479V43ZM479 19V16H476V19H479ZM483 19V22H486V19H483ZM487 23V20H484V23H487ZM487 27H484V30H487V27ZM495 27V30H498V27H495ZM495 23H498V20H495V23ZM483 18H499V12H483V18ZM496 15V19H502V15H496ZM499 22H503V16H499V22ZM500 19V35H506V19H500ZM503 32H487V38H503V32ZM484 35V39H490V35H484ZM487 42H503V36H487V42ZM500 39V47H506V39H500ZM503 44H483V50H503V44ZM486 47V43H480V47H486ZM483 40H479V46H483V40ZM482 43V19H476V43H482ZM479 22H483V16H479V22ZM486 19V15H480V19H486ZM484 23V27H490V23H484ZM487 30H495V24H487V30ZM498 27V23H492V27H498ZM495 20H487V26H495V20ZM507 15V12H504V15H507ZM515 15H518V12H515V15ZM515 19H512V22H515V19ZM519 19V22H522V19H519ZM519 15V12H516V15H519ZM531 15H534V12H531V15ZM531 23V26H534V23H531ZM519 23V20H516V23H519ZM519 27V30H522V27H519ZM515 27V24H512V27H515ZM515 47V50H518V47H515ZM507 47H504V50H507V47ZM507 18H515V12H507V18ZM512 15V19H518V15H512ZM515 22H519V16H515V22ZM522 19V15H516V19H522ZM519 18H531V12H519V18ZM528 15V23H534V15H528ZM531 20H519V26H531V20ZM516 23V27H522V23H516ZM519 24H515V30H519V24ZM512 27V47H518V27H512ZM515 44H507V50H515V44ZM510 47V15H504V47H510Z" fill="black" mask="url(#path-1-outside-1_1_3)"/>
</svg>
